<svg xmlns="http://www.w3.org/2000/svg" width="25.659" height="28.185" viewBox="0 0 25.659 28.185">
  <g id="ic-date-of-birth" transform="translate(-76)">
    <g id="Layer_x0020_1" transform="translate(76)">
      <g id="_531865432" transform="translate(0)">
        <g id="Group_2232" data-name="Group 2232">
          <path id="Path_3705" data-name="Path 3705" d="M79.236,168H80.97v1.271a1.519,1.519,0,0,0,3.038,0V168h3.319v1.271a1.511,1.511,0,1,0,3.022,0V168h3.319v1.271a1.511,1.511,0,1,0,3.022,0V168h1.75a3.235,3.235,0,0,1,3.22,3.22v18.955a3.238,3.238,0,0,1-3.22,3.236h-19.2A3.242,3.242,0,0,1,76,190.175V171.22A3.238,3.238,0,0,1,79.236,168Z" transform="translate(-76 -165.226)" fill="#e63545"/>
          <path id="Path_3706" data-name="Path 3706" d="M79.236,168h19.2a3.132,3.132,0,0,1,1.04.182,3.16,3.16,0,0,1,.545,1.783V188.92a3.227,3.227,0,0,1-3.22,3.236H77.6a3.059,3.059,0,0,1-1.04-.182,3.186,3.186,0,0,1-.561-1.8V171.22A3.238,3.238,0,0,1,79.236,168Z" transform="translate(-76 -165.226)" fill="#ff4155"/>
          <g id="Group_2229" data-name="Group 2229" transform="translate(4.293 2.774)">
            <path id="Path_3707" data-name="Path 3707" d="M720,168h4.392v1.271a2.2,2.2,0,1,1-4.392,0Z" transform="translate(-713.66 -168)" fill="#e63b4d"/>
            <path id="Path_3708" data-name="Path 3708" d="M1105,168h4.392v1.271a2.2,2.2,0,1,1-4.392,0Z" transform="translate(-1092.302 -168)" fill="#e63b4d"/>
            <path id="Path_3709" data-name="Path 3709" d="M336,168h4.392v1.271a2.2,2.2,0,1,1-4.392,0Z" transform="translate(-336 -168)" fill="#e63b4d"/>
          </g>
          <g id="Group_2230" data-name="Group 2230" transform="translate(17.668)">
            <rect id="Rectangle_731" data-name="Rectangle 731" width="2.562" height="5.125" rx="1.281" transform="translate(0.287 0)" fill="#bec6e2"/>
            <path id="Path_3710" data-name="Path 3710" d="M1147.519,0a1.5,1.5,0,0,1,.611.132,1.5,1.5,0,0,1,.231.809V3.467a1.526,1.526,0,0,1-1.519,1.519,1.562,1.562,0,0,1-.611-.132,1.5,1.5,0,0,1-.231-.809V1.519A1.515,1.515,0,0,1,1147.519,0Z" transform="translate(-1146 0)" fill="#d3dcfb"/>
          </g>
          <path id="Path_3723" data-name="Path 3723" d="M.875,0H19.649a.875.875,0,0,1,.875.875V17.882a.875.875,0,0,1-.875.875H.875A.875.875,0,0,1,0,17.882V.875A.875.875,0,0,1,.875,0Z" transform="translate(2.576 7.15)" fill="#d3dcfb"/>
          <path id="Path_3711" data-name="Path 3711" d="M232.875,433H251.1v16.726a.881.881,0,0,1-.875.875H232V433.875A.881.881,0,0,1,232.875,433Z" transform="translate(-229.424 -425.85)" fill="#ebf5fc"/>
          <path id="Path_3712" data-name="Path 3712" d="M232,433.875v3.4h20.524v-3.4a.881.881,0,0,0-.875-.875H232.875A.881.881,0,0,0,232,433.875Z" transform="translate(-229.424 -425.85)" fill="#d1004c"/>
          <path id="Path_3713" data-name="Path 3713" d="M232,433.875v3.4h19.154v-3.4a.885.885,0,0,0-.892-.875H232.875A.881.881,0,0,0,232,433.875Z" transform="translate(-229.424 -425.85)" fill="#e80054"/>
          <rect id="Rectangle_733" data-name="Rectangle 733" width="3.416" height="5.125" rx="1.708" transform="translate(11.121 0)" fill="#bec6e2"/>
          <path id="Path_3714" data-name="Path 3714" d="M763.5,0a1.581,1.581,0,0,1,.627.132,1.652,1.652,0,0,1,.231.809V3.467a1.537,1.537,0,0,1-1.519,1.519,1.5,1.5,0,0,1-.611-.132A1.5,1.5,0,0,1,762,4.045V1.519A1.512,1.512,0,0,1,763.5,0Z" transform="translate(-750.673 0)" fill="#d3dcfb"/>
          <g id="Group_2231" data-name="Group 2231" transform="translate(4.97)">
            <rect id="Rectangle_734" data-name="Rectangle 734" width="2.562" height="5.125" rx="1.281" transform="translate(0.172 0)" fill="#bec6e2"/>
            <path id="Path_3715" data-name="Path 3715" d="M378.519,0a1.5,1.5,0,0,1,.611.132,1.5,1.5,0,0,1,.231.809V3.467a1.522,1.522,0,0,1-1.5,1.519,1.581,1.581,0,0,1-.627-.132A1.5,1.5,0,0,1,377,4.045V1.519A1.515,1.515,0,0,1,378.519,0Z" transform="translate(-377 0)" fill="#d3dcfb"/>
          </g>
        </g>
        <g id="Group_2234" data-name="Group 2234" transform="translate(6.918 12.896)">
          <g id="Group_2233" data-name="Group 2233" transform="translate(3.798)">
            <path id="Path_3716" data-name="Path 3716" d="M827,783.956a.438.438,0,1,0,.875,0v-2.526a.438.438,0,0,0-.875,0Z" transform="translate(-825.316 -781)" fill="#7c83e7"/>
            <path id="Path_3717" data-name="Path 3717" d="M928,839.031a.438.438,0,1,0,.875,0v-1.6a.438.438,0,0,0-.875,0Z" transform="translate(-924.648 -836.075)" fill="#7c83e7"/>
            <path id="Path_3718" data-name="Path 3718" d="M725,839.031a.446.446,0,0,0,.892,0v-1.6a.446.446,0,0,0-.892,0Z" transform="translate(-725 -836.075)" fill="#7c83e7"/>
          </g>
          <path id="Path_3719" data-name="Path 3719" d="M631,964.755h7.348v-3.368a1.381,1.381,0,0,0-1.37-1.387H632.37a1.381,1.381,0,0,0-1.37,1.387Z" transform="translate(-628.754 -957.044)" fill="#fc0"/>
          <path id="Path_3720" data-name="Path 3720" d="M495,1253.3h11.822v-3.1a2.206,2.206,0,0,0-2.2-2.2h-7.414a2.22,2.22,0,0,0-2.213,2.2Z" transform="translate(-495 -1240.289)" fill="#fc0"/>
          <path id="Path_3721" data-name="Path 3721" d="M504.593,1248h-7.381a2.22,2.22,0,0,0-2.213,2.2v1.371a2.114,2.114,0,0,0,.991-.826,5.02,5.02,0,0,1,4.921.941,1.9,1.9,0,0,1,3.286,0,1.908,1.908,0,0,0,1.651-.941,2,2,0,0,0,.974.826V1250.2a2.206,2.206,0,0,0-2.2-2.2Z" transform="translate(-495 -1240.289)" fill="#ff80a9"/>
          <path id="Path_3722" data-name="Path 3722" d="M636.35,960H632.37a1.381,1.381,0,0,0-1.37,1.387v.842a1.316,1.316,0,0,0,.611-.512,1.181,1.181,0,0,0,2.031,0,1.207,1.207,0,0,0,1.024.578,1.166,1.166,0,0,0,1.024-.578,1.207,1.207,0,0,0,1.024.578,1.166,1.166,0,0,0,1.024-.578,1.241,1.241,0,0,0,.611.512v-.842a1.381,1.381,0,0,0-1.37-1.387Z" transform="translate(-628.754 -957.044)" fill="#ff80a9"/>
        </g>
      </g>
    </g>
  </g>
</svg>
